<?xml version="1.0" encoding="utf-8"?>
<!-- Generator: Adobe Illustrator 16.0.0, SVG Export Plug-In . SVG Version: 6.00 Build 0)  -->
<!DOCTYPE svg PUBLIC "-//W3C//DTD SVG 1.1//EN" "http://www.w3.org/Graphics/SVG/1.1/DTD/svg11.dtd">
<svg version="1.1" id="Слой_1" xmlns="http://www.w3.org/2000/svg" xmlns:xlink="http://www.w3.org/1999/xlink" x="0px" y="0px"
	 width="113.386px" height="113.386px" viewBox="0 0 113.386 113.386" enable-background="new 0 0 113.386 113.386"
	 xml:space="preserve">
<g>
	<path fill-rule="evenodd" clip-rule="evenodd" fill="#FFFFFF" d="M56.693,0c31.311,0,56.693,25.382,56.693,56.692
		c0,31.312-25.383,56.693-56.693,56.693C25.383,113.386,0,88.004,0,56.693C0,25.382,25.383,0,56.693,0"/>
	<g>
		<defs>
			<path id="SVGID_1_" d="M56.693,0c31.311,0,56.693,25.382,56.693,56.692c0,31.309-25.383,56.691-56.693,56.691
				c-31.31,0-56.692-25.383-56.692-56.691C0.001,25.382,25.383,0,56.693,0"/>
		</defs>
		<clipPath id="SVGID_2_">
			<use xlink:href="#SVGID_1_"  overflow="visible"/>
		</clipPath>
		<path clip-path="url(#SVGID_2_)" fill-rule="evenodd" clip-rule="evenodd" fill="#FFFFFF" d="M66.8,43.794l-1.258-12.763h-2.137
			l0.21,9.397l-6.594,0.007v-9.19H55.1l-0.643,7.56l-0.984,5.739l0.031,7.432c-2.078,3.89-3.402,9.806-4.085,13.853H59.95h10.046
			c-0.234-3.88-1.177-9.815-3.426-13.853L66.8,43.794z"/>
		
			<path clip-path="url(#SVGID_2_)" fill="none" stroke="#CD8C5D" stroke-width="2" stroke-linejoin="round" stroke-miterlimit="22.9256" d="
			M66.8,43.794l-1.258-12.763h-2.137l0.21,9.397l-6.594,0.007v-9.19H55.1l-0.643,7.56l-0.984,5.739l0.031,7.432
			c-2.078,3.89-3.402,9.806-4.085,13.853H59.95h10.046c-0.234-3.88-1.177-9.815-3.426-13.853L66.8,43.794z"/>
		<path clip-path="url(#SVGID_2_)" fill="none" stroke="#CD8C5D" stroke-width="2" stroke-miterlimit="22.9256" d="M32.108,58.38
			l8.836-2.697l5.933-7.281l3.996-12.389c0.584-1.901,1.691-3.898,3.81-4.132"/>
		
			<polyline clip-path="url(#SVGID_2_)" fill="none" stroke="#CD8C5D" stroke-width="2" stroke-linejoin="round" stroke-miterlimit="22.9256" points="
			53.342,40.416 50.277,49.844 42.652,58.062 		"/>
		
			<rect x="-18.725" y="58.267" clip-path="url(#SVGID_2_)" fill-rule="evenodd" clip-rule="evenodd" fill="#FFFFFF" width="144.11" height="49.771"/>
		
			<rect x="-18.725" y="58.267" clip-path="url(#SVGID_2_)" fill="none" stroke="#CD8C5D" stroke-width="2" stroke-linecap="round" stroke-linejoin="round" stroke-miterlimit="22.9256" width="144.11" height="49.771"/>
		
			<rect x="-18.725" y="72.383" clip-path="url(#SVGID_2_)" fill-rule="evenodd" clip-rule="evenodd" fill="#FFFFFF" width="144.11" height="35.654"/>
		
			<rect x="-18.725" y="72.383" clip-path="url(#SVGID_2_)" fill="none" stroke="#CD8C5D" stroke-width="2" stroke-linecap="round" stroke-linejoin="round" stroke-miterlimit="22.9256" width="144.11" height="35.654"/>
		
			<rect x="-18.725" y="90.21" clip-path="url(#SVGID_2_)" fill-rule="evenodd" clip-rule="evenodd" fill="#FFFFFF" width="144.11" height="29.218"/>
		
			<rect x="-18.725" y="90.21" clip-path="url(#SVGID_2_)" fill="none" stroke="#CD8C5D" stroke-width="2" stroke-linecap="round" stroke-linejoin="round" stroke-miterlimit="22.9256" width="144.11" height="29.218"/>
		
			<rect x="-13.793" y="113.384" clip-path="url(#SVGID_2_)" fill-rule="evenodd" clip-rule="evenodd" fill="#CD8C5D" width="134.246" height="13.729"/>
		
			<rect x="-13.793" y="113.384" clip-path="url(#SVGID_2_)" fill="none" stroke="#FFFFFF" stroke-width="2" stroke-linecap="round" stroke-linejoin="round" stroke-miterlimit="22.9256" width="134.246" height="13.729"/>
		
			<rect x="24.917" y="58.267" clip-path="url(#SVGID_2_)" fill-rule="evenodd" clip-rule="evenodd" fill="#FFFFFF" width="62.025" height="58.455"/>
		
			<rect x="24.917" y="58.267" clip-path="url(#SVGID_2_)" fill="none" stroke="#FFFFFF" stroke-width="2" stroke-linecap="round" stroke-linejoin="round" stroke-miterlimit="22.9256" width="62.025" height="58.455"/>
		<path clip-path="url(#SVGID_2_)" fill="#CD8C5D" d="M74.558,89.789V89.25h-1.177v-2.507h-0.702v3.045H74.558z M70.723,88.71
			h-0.797l0.397-1.323L70.723,88.71z M71.787,89.789l-1.036-3.045h-0.852l-1.041,3.045h0.763l0.163-0.538h1.077l0.163,0.538H71.787z
			 M67.974,89.789v-3.045h-0.709v1.734l-1.143-1.734h-0.716v3.045h0.702v-1.801l1.195,1.801H67.974z M62.87,89.302
			c-0.119-0.004-0.226-0.029-0.318-0.083c-0.088-0.052-0.167-0.124-0.226-0.217c-0.065-0.093-0.113-0.203-0.145-0.33
			c-0.027-0.124-0.047-0.26-0.047-0.402c0-0.153,0.02-0.286,0.047-0.41c0.031-0.127,0.079-0.237,0.145-0.33
			c0.059-0.093,0.138-0.163,0.226-0.217c0.093-0.052,0.199-0.075,0.318-0.079c0.12,0.004,0.229,0.027,0.319,0.079
			c0.095,0.054,0.174,0.124,0.236,0.217c0.062,0.093,0.111,0.203,0.145,0.33c0.032,0.124,0.046,0.257,0.046,0.41
			c0,0.143-0.014,0.278-0.046,0.402c-0.033,0.127-0.083,0.237-0.145,0.33c-0.063,0.093-0.142,0.165-0.236,0.217
			C63.098,89.273,62.99,89.298,62.87,89.302z M62.87,89.842c0.233,0,0.437-0.04,0.617-0.119c0.179-0.072,0.332-0.186,0.463-0.328
			c0.124-0.14,0.222-0.305,0.284-0.494c0.065-0.194,0.1-0.404,0.1-0.631c0-0.229-0.034-0.44-0.1-0.63
			c-0.063-0.189-0.16-0.361-0.284-0.499c-0.131-0.143-0.284-0.251-0.463-0.327c-0.181-0.079-0.384-0.12-0.617-0.12
			c-0.226,0-0.434,0.041-0.614,0.12c-0.181,0.076-0.334,0.185-0.458,0.327c-0.127,0.138-0.222,0.31-0.287,0.499
			s-0.097,0.4-0.097,0.63c0,0.227,0.031,0.437,0.097,0.631c0.065,0.189,0.16,0.354,0.287,0.494c0.124,0.143,0.277,0.256,0.458,0.328
			C62.436,89.802,62.644,89.842,62.87,89.842z M60.345,89.789v-3.045H59.64v3.045H60.345z M57.406,89.842
			c0.19,0,0.361-0.022,0.509-0.067c0.149-0.048,0.273-0.11,0.371-0.194c0.102-0.083,0.176-0.181,0.229-0.291
			c0.053-0.115,0.075-0.237,0.075-0.371c0-0.131-0.022-0.241-0.063-0.339c-0.043-0.093-0.104-0.176-0.176-0.243
			c-0.075-0.07-0.158-0.132-0.251-0.182c-0.093-0.052-0.189-0.092-0.287-0.135c-0.102-0.036-0.194-0.075-0.287-0.106
			c-0.092-0.031-0.175-0.063-0.249-0.102c-0.074-0.031-0.135-0.074-0.177-0.115c-0.041-0.045-0.064-0.097-0.068-0.153
			c0.004-0.098,0.041-0.172,0.11-0.227c0.075-0.056,0.177-0.083,0.302-0.083c0.139,0,0.268,0.018,0.396,0.061
			c0.131,0.041,0.246,0.106,0.353,0.194l0.336-0.458c-0.133-0.111-0.289-0.194-0.47-0.251c-0.181-0.059-0.375-0.086-0.588-0.086
			c-0.186,0-0.348,0.022-0.49,0.067c-0.141,0.053-0.26,0.115-0.361,0.194c-0.098,0.084-0.176,0.181-0.227,0.287
			s-0.078,0.217-0.078,0.339c0,0.129,0.021,0.239,0.068,0.337c0.042,0.092,0.102,0.171,0.176,0.241
			c0.075,0.07,0.158,0.124,0.25,0.177c0.093,0.045,0.189,0.085,0.287,0.124c0.097,0.036,0.194,0.074,0.287,0.105
			c0.092,0.034,0.176,0.07,0.249,0.102c0.074,0.039,0.135,0.079,0.181,0.132c0.043,0.045,0.065,0.102,0.065,0.169
			c0,0.062-0.018,0.122-0.057,0.167c-0.037,0.052-0.088,0.093-0.161,0.124c-0.069,0.03-0.157,0.043-0.26,0.048
			c-0.115-0.005-0.227-0.018-0.328-0.048c-0.106-0.026-0.203-0.063-0.286-0.11c-0.088-0.05-0.167-0.106-0.231-0.172l-0.348,0.473
			c0.139,0.126,0.311,0.219,0.504,0.287C56.911,89.806,57.142,89.842,57.406,89.842z M54.201,89.842
			c0.194,0,0.365-0.022,0.508-0.067c0.148-0.048,0.273-0.11,0.375-0.194c0.102-0.083,0.176-0.181,0.227-0.291
			c0.051-0.115,0.078-0.237,0.078-0.371c0-0.131-0.023-0.241-0.07-0.339c-0.041-0.093-0.101-0.176-0.175-0.243
			c-0.075-0.07-0.157-0.132-0.25-0.182c-0.093-0.052-0.186-0.092-0.287-0.135c-0.097-0.036-0.194-0.075-0.282-0.106
			c-0.093-0.031-0.176-0.063-0.25-0.102c-0.075-0.031-0.134-0.074-0.176-0.115c-0.046-0.045-0.069-0.097-0.069-0.153
			c0-0.098,0.036-0.172,0.111-0.227c0.069-0.056,0.17-0.083,0.296-0.083c0.139,0,0.273,0.018,0.403,0.061
			c0.125,0.041,0.245,0.106,0.352,0.194l0.333-0.458c-0.134-0.111-0.292-0.194-0.472-0.251c-0.176-0.059-0.375-0.086-0.588-0.086
			c-0.18,0-0.341,0.022-0.485,0.067c-0.144,0.053-0.263,0.115-0.36,0.194c-0.102,0.084-0.176,0.181-0.227,0.287
			c-0.055,0.106-0.083,0.217-0.083,0.339c0.005,0.129,0.028,0.239,0.07,0.337c0.046,0.092,0.102,0.171,0.175,0.241
			c0.074,0.07,0.163,0.124,0.25,0.177c0.097,0.045,0.19,0.085,0.292,0.124c0.097,0.036,0.194,0.074,0.287,0.105
			c0.093,0.034,0.175,0.07,0.25,0.102c0.075,0.039,0.135,0.079,0.176,0.132c0.042,0.045,0.064,0.102,0.069,0.169
			c0,0.062-0.018,0.122-0.055,0.167c-0.037,0.052-0.093,0.093-0.162,0.124c-0.07,0.03-0.157,0.043-0.264,0.048
			c-0.115-0.005-0.221-0.018-0.329-0.048c-0.102-0.026-0.199-0.063-0.287-0.11c-0.087-0.05-0.162-0.106-0.227-0.172l-0.347,0.473
			c0.139,0.126,0.305,0.219,0.505,0.287C53.705,89.806,53.936,89.842,54.201,89.842z M52.123,89.789V89.25h-1.306v-0.738h1.269
			V87.97h-1.269v-0.691h1.306v-0.535h-2.008v3.045H52.123z M47.746,89.789v-1.276h1.267V87.97h-1.267v-0.691h1.3v-0.535h-2.003
			v3.045H47.746z M44.507,89.302c-0.121-0.004-0.227-0.029-0.32-0.083c-0.088-0.052-0.166-0.124-0.231-0.217
			c-0.06-0.093-0.106-0.203-0.139-0.33c-0.031-0.124-0.046-0.26-0.046-0.402c0-0.153,0.015-0.286,0.046-0.41
			c0.033-0.127,0.079-0.237,0.139-0.33c0.065-0.093,0.144-0.163,0.231-0.217c0.093-0.052,0.199-0.075,0.32-0.079
			c0.12,0.004,0.227,0.027,0.319,0.079c0.091,0.054,0.17,0.124,0.231,0.217c0.063,0.093,0.111,0.203,0.143,0.33
			c0.033,0.124,0.051,0.257,0.051,0.41c0,0.143-0.018,0.278-0.051,0.402c-0.032,0.127-0.079,0.237-0.143,0.33
			c-0.061,0.093-0.14,0.165-0.231,0.217C44.733,89.273,44.626,89.298,44.507,89.302z M44.507,89.842c0.227,0,0.435-0.04,0.614-0.119
			c0.182-0.072,0.334-0.186,0.458-0.328c0.13-0.14,0.222-0.305,0.291-0.494c0.066-0.194,0.097-0.404,0.097-0.631
			c0-0.229-0.031-0.44-0.097-0.63c-0.069-0.189-0.161-0.361-0.291-0.499c-0.125-0.143-0.277-0.251-0.458-0.327
			c-0.18-0.079-0.388-0.12-0.614-0.12c-0.232,0-0.436,0.041-0.616,0.12c-0.181,0.076-0.333,0.185-0.458,0.327
			c-0.124,0.138-0.221,0.31-0.287,0.499c-0.064,0.189-0.097,0.4-0.102,0.63c0.004,0.227,0.037,0.437,0.102,0.631
			c0.065,0.189,0.163,0.354,0.287,0.494c0.125,0.143,0.278,0.256,0.458,0.328C44.071,89.802,44.275,89.842,44.507,89.842z
			 M40.906,88.151h-0.499v-0.872h0.499c0.093,0,0.172,0.021,0.241,0.057c0.065,0.036,0.115,0.084,0.152,0.149
			c0.038,0.065,0.057,0.142,0.057,0.229c0,0.089-0.019,0.168-0.057,0.233c-0.037,0.063-0.087,0.115-0.152,0.146
			C41.078,88.132,40.999,88.151,40.906,88.151z M42.104,89.789l-0.638-1.209c0.074-0.022,0.148-0.054,0.218-0.097
			c0.073-0.045,0.138-0.102,0.198-0.177c0.056-0.067,0.103-0.151,0.14-0.253c0.036-0.102,0.056-0.219,0.056-0.348
			c0-0.138-0.028-0.269-0.075-0.389c-0.055-0.115-0.125-0.217-0.217-0.305c-0.097-0.083-0.209-0.148-0.337-0.198
			c-0.13-0.048-0.279-0.07-0.436-0.07h-1.309v3.045h0.704v-1.103h0.378l0.538,1.103H42.104z M37.524,88.151h-0.504v-0.872h0.504
			c0.088,0,0.167,0.021,0.231,0.057c0.07,0.036,0.12,0.084,0.157,0.149s0.055,0.142,0.055,0.229c0,0.089-0.018,0.168-0.055,0.233
			c-0.037,0.063-0.087,0.115-0.157,0.146C37.691,88.132,37.612,88.151,37.524,88.151z M37.021,89.789v-1.103h0.587
			c0.179,0,0.337-0.027,0.472-0.077c0.133-0.052,0.25-0.122,0.338-0.214c0.088-0.089,0.157-0.19,0.203-0.31
			c0.046-0.115,0.069-0.242,0.069-0.371c0-0.128-0.022-0.255-0.069-0.37c-0.046-0.119-0.115-0.221-0.203-0.31
			c-0.088-0.092-0.205-0.162-0.338-0.212c-0.134-0.052-0.292-0.079-0.472-0.079h-1.291v3.045H37.021z"/>
		<path clip-path="url(#SVGID_2_)" fill="#CD8C5D" d="M41.892,71.335c0.861,0,1.555,0.698,1.555,1.554
			c0,0.863-0.694,1.561-1.555,1.561c-0.86,0-1.56-0.697-1.56-1.561C40.333,72.034,41.032,71.335,41.892,71.335 M66.906,81.75
			l-0.489-2.03c-0.361,0.353-1.168,0.246-1.168-0.477v-2.405h1.504v-2.522h-1.504v-2.137h-2.758v2.137h-1.231v2.522h1.231v2.157
			c0,1.447-0.014,2.755,1.739,3.2C65.128,82.427,66.183,82.243,66.906,81.75z M71.439,76.666c0.86,0,1.554,0.7,1.554,1.554
			c0,0.861-0.693,1.562-1.554,1.562s-1.559-0.7-1.559-1.562C69.88,77.366,70.579,76.666,71.439,76.666z M71.43,82.326
			c0.662-0.007,1.249-0.117,1.764-0.334c0.518-0.217,0.953-0.521,1.313-0.901c0.356-0.386,0.63-0.819,0.815-1.31
			c0.186-0.495,0.282-1.015,0.282-1.565s-0.097-1.073-0.282-1.563c-0.186-0.489-0.459-0.926-0.815-1.305
			c-0.359-0.38-0.795-0.676-1.313-0.897c-0.515-0.212-1.102-0.325-1.764-0.329c-0.657,0.004-1.24,0.117-1.753,0.329
			c-0.515,0.222-0.948,0.518-1.31,0.897c-0.353,0.379-0.626,0.815-0.809,1.305c-0.192,0.49-0.285,1.015-0.285,1.563
			c0,0.551,0.093,1.07,0.285,1.565c0.183,0.49,0.456,0.924,0.809,1.31c0.361,0.38,0.795,0.685,1.31,0.901
			C70.19,82.208,70.773,82.319,71.43,82.326z M57.627,78.868c-0.055,0.865-0.374,1.314-0.855,1.5
			c-1.004,0.327-1.457-0.741-0.819-1.333C56.315,78.701,57.096,78.739,57.627,78.868z M60.39,82.129v-4.723
			c-0.018-3.747-4.469-4.447-7-2.604l0.787,1.911c0.888-0.709,3.451-1.032,3.451,0.738c-1.045-0.203-2.535-0.415-3.613,0.127
			c-0.217,0.11-0.416,0.269-0.592,0.456c-0.181,0.196-0.315,0.432-0.421,0.714c-0.102,0.282-0.157,0.616-0.157,1.005
			c0,0.354,0.055,0.671,0.157,0.951c0.106,0.279,0.241,0.52,0.421,0.723c0.176,0.203,0.375,0.375,0.592,0.503
			c0.875,0.529,2.768,0.437,3.613-0.212v0.411H60.39z M52.765,82.129l-2.716-4.255l2.55-3.56h-3.332l-1.703,2.782v-5.762h-2.758
			v10.794h2.758v-1.762l0.538-0.759l1.276,2.521H52.765z M43.27,82.129v-6.897h-2.756v6.897H43.27z M39.018,71.335h-2.762v10.794
			h2.762V71.335z"/>
		
			<path clip-path="url(#SVGID_2_)" fill="none" stroke="#CD8C5D" stroke-width="2" stroke-linecap="round" stroke-linejoin="round" stroke-miterlimit="22.9256" d="
			M92.934,38.156l-8.824-0.058l-8.323,5.916l-1.318,0.936l-5.046-9.479c-0.944-2.074-1.5-3.184-3.185-3.553l-0.664-0.144"/>
		
			<line clip-path="url(#SVGID_2_)" fill="none" stroke="#CD8C5D" stroke-width="2" stroke-linecap="round" stroke-linejoin="round" stroke-miterlimit="22.9256" x1="88.449" y1="34.901" x2="84.151" y2="38.037"/>
		<path clip-path="url(#SVGID_2_)" fill="none" stroke="#CD8C5D" stroke-width="2" stroke-miterlimit="22.9256" d="M66.749,40.439
			l4.555-2.577 M49.309,39.223l4.401,1.3"/>
		
			<rect x="57.601" y="25.47" clip-path="url(#SVGID_2_)" fill-rule="evenodd" clip-rule="evenodd" fill="#FFFFFF" width="5.077" height="9.035"/>
		
			<rect x="57.601" y="25.47" clip-path="url(#SVGID_2_)" fill="none" stroke="#CD8C5D" stroke-width="2" stroke-miterlimit="22.9256" width="5.077" height="9.035"/>
		<circle clip-path="url(#SVGID_2_)" fill-rule="evenodd" clip-rule="evenodd" fill="#FFFFFF" cx="63.699" cy="18.466" r="2.356"/>
		
			<circle clip-path="url(#SVGID_2_)" fill="none" stroke="#CD8C5D" stroke-width="2" stroke-miterlimit="22.9256" cx="63.699" cy="18.466" r="2.356"/>
		<circle clip-path="url(#SVGID_2_)" fill-rule="evenodd" clip-rule="evenodd" fill="#FFFFFF" cx="60.103" cy="23.737" r="5.11"/>
		
			<circle clip-path="url(#SVGID_2_)" fill="none" stroke="#CD8C5D" stroke-width="2" stroke-miterlimit="22.9256" cx="60.103" cy="23.737" r="5.11"/>
		
			<line clip-path="url(#SVGID_2_)" fill="none" stroke="#CD8C5D" stroke-width="2" stroke-miterlimit="22.9256" x1="57.601" y1="34.505" x2="62.678" y2="34.505"/>
		
			<polyline clip-path="url(#SVGID_2_)" fill="none" stroke="#CD8C5D" stroke-width="2" stroke-linecap="round" stroke-linejoin="round" stroke-miterlimit="22.9256" points="
			92.404,38.154 84.643,40.573 73.746,49.562 72.627,49 67.207,40.18 		"/>
		<path clip-path="url(#SVGID_2_)" fill="none" stroke="#CD8C5D" stroke-width="2" stroke-miterlimit="22.9256" d="M58.572,18.526
			c1.617,3.664,3.914,5.43,6.439,6.559"/>
		
			<rect x="4.888" y="46.943" clip-path="url(#SVGID_2_)" fill-rule="evenodd" clip-rule="evenodd" fill="#FFFFFF" width="5.666" height="11.324"/>
		
			<rect x="4.888" y="46.943" clip-path="url(#SVGID_2_)" fill="none" stroke="#CD8C5D" stroke-width="2" stroke-linecap="round" stroke-linejoin="round" stroke-miterlimit="22.9256" width="5.666" height="11.324"/>
		
			<rect x="14.278" y="52.606" clip-path="url(#SVGID_2_)" fill-rule="evenodd" clip-rule="evenodd" fill="#FFFFFF" width="5.665" height="5.661"/>
		
			<rect x="14.278" y="52.606" clip-path="url(#SVGID_2_)" fill="none" stroke="#CD8C5D" stroke-width="2" stroke-linecap="round" stroke-linejoin="round" stroke-miterlimit="22.9256" width="5.665" height="5.661"/>
		
			<rect x="7.42" y="44.552" clip-path="url(#SVGID_2_)" fill-rule="evenodd" clip-rule="evenodd" fill="#FFFFFF" width="0.659" height="2.228"/>
		
			<rect x="7.42" y="44.552" clip-path="url(#SVGID_2_)" fill="none" stroke="#CD8C5D" stroke-width="2" stroke-linecap="round" stroke-linejoin="round" stroke-miterlimit="22.9256" width="0.659" height="2.228"/>
		
			<rect x="14.278" y="52.606" clip-path="url(#SVGID_2_)" fill-rule="evenodd" clip-rule="evenodd" fill="#FFFFFF" width="5.665" height="2.368"/>
		
			<rect x="14.278" y="52.606" clip-path="url(#SVGID_2_)" fill="none" stroke="#CD8C5D" stroke-width="2" stroke-linecap="round" stroke-linejoin="round" stroke-miterlimit="22.9256" width="5.665" height="2.368"/>
		
			<rect x="23.67" y="54.578" clip-path="url(#SVGID_2_)" fill-rule="evenodd" clip-rule="evenodd" fill="#FFFFFF" width="5.665" height="3.689"/>
		
			<rect x="23.67" y="54.578" clip-path="url(#SVGID_2_)" fill="none" stroke="#CD8C5D" stroke-width="2" stroke-linecap="round" stroke-linejoin="round" stroke-miterlimit="22.9256" width="5.665" height="3.689"/>
		
			<rect x="88.79" y="46.943" clip-path="url(#SVGID_2_)" fill-rule="evenodd" clip-rule="evenodd" fill="#FFFFFF" width="4.084" height="11.324"/>
		
			<rect x="88.79" y="46.943" clip-path="url(#SVGID_2_)" fill="none" stroke="#CD8C5D" stroke-width="2" stroke-linecap="round" stroke-linejoin="round" stroke-miterlimit="22.9256" width="4.084" height="11.324"/>
		
			<rect x="96.6" y="49.264" clip-path="url(#SVGID_2_)" fill-rule="evenodd" clip-rule="evenodd" fill="#FFFFFF" width="4.083" height="9.003"/>
		
			<rect x="96.6" y="49.264" clip-path="url(#SVGID_2_)" fill="none" stroke="#CD8C5D" stroke-width="2" stroke-linecap="round" stroke-linejoin="round" stroke-miterlimit="22.9256" width="4.083" height="9.003"/>
		
			<rect x="104.408" y="46.943" clip-path="url(#SVGID_2_)" fill-rule="evenodd" clip-rule="evenodd" fill="#FFFFFF" width="5.667" height="11.324"/>
		
			<rect x="104.408" y="46.943" clip-path="url(#SVGID_2_)" fill="none" stroke="#CD8C5D" stroke-width="2" stroke-linecap="round" stroke-linejoin="round" stroke-miterlimit="22.9256" width="5.667" height="11.324"/>
		
			<rect x="90.501" y="44.714" clip-path="url(#SVGID_2_)" fill-rule="evenodd" clip-rule="evenodd" fill="#FFFFFF" width="0.66" height="2.229"/>
		
			<rect x="90.501" y="44.714" clip-path="url(#SVGID_2_)" fill="none" stroke="#CD8C5D" stroke-width="2" stroke-linecap="round" stroke-linejoin="round" stroke-miterlimit="22.9256" width="0.66" height="2.229"/>
		
			<rect x="98.283" y="47.013" clip-path="url(#SVGID_2_)" fill-rule="evenodd" clip-rule="evenodd" fill="#FFFFFF" width="0.659" height="2.228"/>
		
			<rect x="98.283" y="47.013" clip-path="url(#SVGID_2_)" fill="none" stroke="#CD8C5D" stroke-width="2" stroke-linecap="round" stroke-linejoin="round" stroke-miterlimit="22.9256" width="0.659" height="2.228"/>
		
			<rect x="106.942" y="44.552" clip-path="url(#SVGID_2_)" fill-rule="evenodd" clip-rule="evenodd" fill="#FFFFFF" width="0.657" height="2.228"/>
		
			<rect x="106.942" y="44.552" clip-path="url(#SVGID_2_)" fill="none" stroke="#CD8C5D" stroke-width="2" stroke-linecap="round" stroke-linejoin="round" stroke-miterlimit="22.9256" width="0.657" height="2.228"/>
		
			<rect x="24.917" y="58.267" clip-path="url(#SVGID_2_)" fill="none" stroke="#CD8C5D" stroke-width="2" stroke-linecap="round" stroke-linejoin="round" stroke-miterlimit="22.9256" width="62.025" height="61.161"/>
		<path clip-path="url(#SVGID_2_)" fill="none" stroke="#CD8C5D" stroke-width="2" stroke-miterlimit="22.9256" d="M59.084,19.198
			c-1.029,2.329-2.488,3.451-4.091,4.169"/>
	</g>
</g>
</svg>
