<?xml version="1.0" encoding="utf-8"?>
<!-- Generator: Adobe Illustrator 16.0.0, SVG Export Plug-In . SVG Version: 6.00 Build 0)  -->
<!DOCTYPE svg PUBLIC "-//W3C//DTD SVG 1.1//EN" "http://www.w3.org/Graphics/SVG/1.1/DTD/svg11.dtd">
<svg version="1.1" id="Слой_1" xmlns="http://www.w3.org/2000/svg" xmlns:xlink="http://www.w3.org/1999/xlink" x="0px" y="0px"
	 width="113.386px" height="113.386px" viewBox="0 0 113.386 113.386" enable-background="new 0 0 113.386 113.386"
	 xml:space="preserve">
<g>
	<path fill-rule="evenodd" clip-rule="evenodd" fill="#FFFFFF" d="M56.691,0c31.312,0,56.694,25.383,56.694,56.693
		s-25.383,56.693-56.694,56.693C25.381,113.386,0,88.003,0,56.693S25.381,0,56.691,0"/>
	
		<path fill="none" stroke="#CD8C5D" stroke-width="2" stroke-linecap="round" stroke-linejoin="round" stroke-miterlimit="22.9256" d="
		M44.439,17.429h24.505c0.382,0,0.694,0.312,0.694,0.693v5.218c0,0.382-0.313,0.693-0.694,0.693H44.439
		c-0.38,0-0.692-0.312-0.692-0.693v-5.218C43.747,17.74,44.059,17.429,44.439,17.429z M52.68,78.965h11.432 M52.68,75.826h21.928
		 M52.68,72.686h17.17 M52.68,59.825h21.928 M52.68,56.686h10.965 M52.68,53.546h17.17 M52.68,41.192h11.432 M52.68,38.053h21.928
		 M52.68,34.914h17.17 M35.92,76.364l3.532,3.433l6.671-8.733 M35.92,57.991l3.532,3.435l6.671-8.732 M35.92,38.776l3.532,3.434
		l6.671-8.733 M69.66,19.173h12.653c1.767,0,3.21,1.443,3.21,3.208v68.323c0,1.767-1.443,3.21-3.21,3.21H31.071
		c-1.765,0-3.208-1.443-3.208-3.21V22.382c0-1.765,1.443-3.208,3.208-3.208h12.686"/>
</g>
</svg>
