<?xml version="1.0" encoding="utf-8"?>
<!-- Generator: Adobe Illustrator 16.0.0, SVG Export Plug-In . SVG Version: 6.00 Build 0)  -->
<!DOCTYPE svg PUBLIC "-//W3C//DTD SVG 1.1//EN" "http://www.w3.org/Graphics/SVG/1.1/DTD/svg11.dtd">
<svg version="1.1" id="Слой_1" xmlns="http://www.w3.org/2000/svg" xmlns:xlink="http://www.w3.org/1999/xlink" x="0px" y="0px"
	 width="113.386px" height="113.386px" viewBox="0 0 113.386 113.386" enable-background="new 0 0 113.386 113.386"
	 xml:space="preserve">
<g>
	<path fill-rule="evenodd" clip-rule="evenodd" fill="#FFFFFF" d="M56.692,0c31.311,0,56.693,25.383,56.693,56.693
		s-25.383,56.693-56.693,56.693C25.383,113.386,0,88.003,0,56.693S25.383,0,56.692,0"/>
	
		<rect x="23.705" y="43.878" fill="none" stroke="#CD8C5D" stroke-width="2" stroke-linecap="round" stroke-linejoin="round" stroke-miterlimit="22.9256" width="66.917" height="46.686"/>
	<rect x="19.894" y="43.878" fill-rule="evenodd" clip-rule="evenodd" fill="#FFFFFF" width="74.54" height="16.573"/>
	
		<rect x="19.894" y="43.878" fill="none" stroke="#CD8C5D" stroke-width="2" stroke-linecap="round" stroke-linejoin="round" stroke-miterlimit="22.9256" width="74.54" height="16.573"/>
	<path fill-rule="evenodd" clip-rule="evenodd" fill="#FFFFFF" d="M48.802,25.943c4.84,5.179,7.838,11.383,8.361,17.934
		c-6.56-0.433-13.165-2.973-18.047-8.113C28.228,24.302,38.693,15.13,48.802,25.943z"/>
	
		<path fill="none" stroke="#CD8C5D" stroke-width="2" stroke-linecap="round" stroke-linejoin="round" stroke-miterlimit="22.9256" d="
		M48.802,25.943c4.84,5.179,7.838,11.383,8.361,17.934c-6.56-0.433-13.165-2.973-18.047-8.113
		C28.228,24.302,38.693,15.13,48.802,25.943z"/>
	<path fill-rule="evenodd" clip-rule="evenodd" fill="#FFFFFF" d="M65.524,25.943c-4.841,5.179-7.837,11.383-8.361,17.934
		c6.56-0.433,13.166-2.973,18.049-8.113C86.1,24.302,75.634,15.13,65.524,25.943z"/>
	
		<path fill="none" stroke="#CD8C5D" stroke-width="2" stroke-linecap="round" stroke-linejoin="round" stroke-miterlimit="22.9256" d="
		M65.524,25.943c-4.841,5.179-7.837,11.383-8.361,17.934c6.56-0.433,13.166-2.973,18.049-8.113
		C86.1,24.302,75.634,15.13,65.524,25.943z"/>
	<rect x="51.629" y="43.878" fill-rule="evenodd" clip-rule="evenodd" fill="#FFFFFF" width="11.069" height="46.688"/>
	
		<rect x="51.629" y="43.878" fill="none" stroke="#CD8C5D" stroke-width="2" stroke-linecap="round" stroke-linejoin="round" stroke-miterlimit="22.9256" width="11.069" height="46.688"/>
</g>
</svg>
