<svg width="12" height="19" viewBox="0 0 12 19" fill="none" xmlns="http://www.w3.org/2000/svg">
<path d="M9.66797 11.9922C8.89453 12.4844 7.83984 12.8008 6.50391 12.9414L7.24219 13.6797L9.91406 16.3516C10.2188 16.6562 10.3008 17.0078 10.1602 17.4062C10.0195 17.8281 9.76172 18.0859 9.38672 18.1797C9.03516 18.2969 8.68359 18.2266 8.33203 17.9688C7.86328 17.5 6.96094 16.5977 5.625 15.2617L2.95312 17.9336C2.64844 18.2383 2.28516 18.3203 1.86328 18.1797C1.46484 18.0391 1.20703 17.7812 1.08984 17.4062C0.996094 17.0547 1.08984 16.7031 1.37109 16.3516C3.15234 14.5469 4.04297 13.6445 4.04297 13.6445L4.78125 12.9414C3.39844 12.8008 2.33203 12.4844 1.58203 11.9922C0.949219 11.5703 0.539062 11.2305 0.351562 10.9727C0.164062 10.6914 0.175781 10.3398 0.386719 9.91797C0.527344 9.61328 0.75 9.42578 1.05469 9.35547C1.38281 9.26172 1.79297 9.37891 2.28516 9.70703C2.37891 9.77734 2.51953 9.87109 2.70703 9.98828C2.89453 10.1055 3.26953 10.2578 3.83203 10.4453C4.41797 10.6328 5.01562 10.7266 5.625 10.7266C6.23438 10.7266 6.82031 10.6445 7.38281 10.4805C7.94531 10.3164 8.34375 10.1406 8.57812 9.95312L8.96484 9.70703C9.45703 9.37891 9.85547 9.26172 10.1602 9.35547C10.4883 9.42578 10.7344 9.61328 10.8984 9.91797C10.9688 10.1758 11.0156 10.375 11.0391 10.5156C11.0625 10.6562 11.0039 10.8203 10.8633 11.0078C10.7227 11.1953 10.5703 11.3594 10.4062 11.5C10.2422 11.6172 9.99609 11.7812 9.66797 11.9922ZM1.05469 4.82031C1.05469 3.55469 1.5 2.47656 2.39062 1.58594C3.28125 0.695313 4.35938 0.25 5.625 0.25C6.44531 0.25 7.20703 0.460938 7.91016 0.882812C8.61328 1.28125 9.16406 1.83203 9.5625 2.53516C9.98438 3.21484 10.1953 3.97656 10.1953 4.82031C10.1953 6.0625 9.75 7.12891 8.85938 8.01953C7.96875 8.91016 6.89062 9.35547 5.625 9.35547C4.35938 9.35547 3.28125 8.91016 2.39062 8.01953C1.5 7.12891 1.05469 6.0625 1.05469 4.82031ZM3.375 4.82031C3.375 5.42969 3.59766 5.95703 4.04297 6.40234C4.48828 6.82422 5.01562 7.03516 5.625 7.03516C6.23438 7.03516 6.76172 6.82422 7.20703 6.40234C7.65234 5.95703 7.875 5.42969 7.875 4.82031C7.875 4.1875 7.65234 3.66016 7.20703 3.23828C6.76172 2.79297 6.23438 2.57031 5.625 2.57031C5.22656 2.57031 4.85156 2.67578 4.5 2.88672C4.14844 3.07422 3.86719 3.34375 3.65625 3.69531C3.46875 4.02344 3.375 4.39844 3.375 4.82031Z" fill="#E0E0E0"/>
</svg>
