<svg width="11" height="18" viewBox="0 0 11 18" fill="none" xmlns="http://www.w3.org/2000/svg">
<path d="M9.13086 11.2148C8.40039 11.6797 7.4043 11.9785 6.14258 12.1113L6.83984 12.8086L9.36328 15.332C9.65104 15.6198 9.72852 15.9518 9.5957 16.3281C9.46289 16.7266 9.2194 16.9701 8.86523 17.0586C8.5332 17.1693 8.20117 17.1029 7.86914 16.8594C7.42643 16.4167 6.57422 15.5645 5.3125 14.3027L2.78906 16.8262C2.5013 17.1139 2.1582 17.1914 1.75977 17.0586C1.38346 16.9258 1.13997 16.6823 1.0293 16.3281C0.940755 15.9961 1.0293 15.6641 1.29492 15.332C2.97721 13.6276 3.81836 12.7754 3.81836 12.7754L4.51562 12.1113C3.20964 11.9785 2.20247 11.6797 1.49414 11.2148C0.896484 10.8164 0.509115 10.4954 0.332031 10.252C0.154948 9.98633 0.166016 9.6543 0.365234 9.25586C0.498047 8.9681 0.708333 8.79102 0.996094 8.72461C1.30599 8.63607 1.69336 8.74674 2.1582 9.05664C2.24674 9.12305 2.37956 9.21159 2.55664 9.32227C2.73372 9.43294 3.08789 9.57682 3.61914 9.75391C4.17253 9.93099 4.73698 10.0195 5.3125 10.0195C5.88802 10.0195 6.44141 9.94206 6.97266 9.78711C7.50391 9.63216 7.88021 9.46615 8.10156 9.28906L8.4668 9.05664C8.93164 8.74674 9.30794 8.63607 9.5957 8.72461C9.9056 8.79102 10.138 8.9681 10.293 9.25586C10.3594 9.49935 10.4036 9.6875 10.4258 9.82031C10.4479 9.95312 10.3926 10.1081 10.2598 10.2852C10.127 10.4622 9.98307 10.6172 9.82812 10.75C9.67318 10.8607 9.44076 11.0156 9.13086 11.2148ZM0.996094 4.44141C0.996094 3.24609 1.41667 2.22786 2.25781 1.38672C3.09896 0.545573 4.11719 0.125 5.3125 0.125C6.08724 0.125 6.80664 0.324219 7.4707 0.722656C8.13477 1.09896 8.65495 1.61914 9.03125 2.2832C9.42969 2.92513 9.62891 3.64453 9.62891 4.44141C9.62891 5.61458 9.20833 6.62174 8.36719 7.46289C7.52604 8.30404 6.50781 8.72461 5.3125 8.72461C4.11719 8.72461 3.09896 8.30404 2.25781 7.46289C1.41667 6.62174 0.996094 5.61458 0.996094 4.44141ZM3.1875 4.44141C3.1875 5.01693 3.39779 5.51497 3.81836 5.93555C4.23893 6.33398 4.73698 6.5332 5.3125 6.5332C5.88802 6.5332 6.38607 6.33398 6.80664 5.93555C7.22721 5.51497 7.4375 5.01693 7.4375 4.44141C7.4375 3.84375 7.22721 3.3457 6.80664 2.94727C6.38607 2.52669 5.88802 2.31641 5.3125 2.31641C4.9362 2.31641 4.58203 2.41602 4.25 2.61523C3.91797 2.79232 3.65234 3.04688 3.45312 3.37891C3.27604 3.6888 3.1875 4.04297 3.1875 4.44141Z" fill="#4B4B4B"/>
</svg>
