<svg width="17" height="15" viewBox="0 0 17 15" fill="none" xmlns="http://www.w3.org/2000/svg">
<path d="M15.2402 4.17188C15.2624 4.26042 15.2734 4.4043 15.2734 4.60352C15.2734 5.77669 15.0521 6.94987 14.6094 8.12305C14.1667 9.27409 13.5358 10.3366 12.7168 11.3105C11.9199 12.2624 10.8796 13.0371 9.5957 13.6348C8.31185 14.2324 6.89518 14.5312 5.3457 14.5312C3.39779 14.5312 1.61589 14.0111 0 12.9707C0.24349 12.9928 0.520182 13.0039 0.830078 13.0039C2.44596 13.0039 3.89583 12.5059 5.17969 11.5098C4.40495 11.5098 3.71875 11.2884 3.12109 10.8457C2.54557 10.3809 2.14714 9.80534 1.92578 9.11914C2.14714 9.14128 2.35742 9.15234 2.55664 9.15234C2.86654 9.15234 3.17643 9.11914 3.48633 9.05273C2.95508 8.94206 2.47917 8.7207 2.05859 8.38867C1.63802 8.05664 1.30599 7.6582 1.0625 7.19336C0.81901 6.70638 0.697266 6.1862 0.697266 5.63281V5.56641C1.18424 5.85417 1.70443 6.00911 2.25781 6.03125C1.21745 5.32292 0.697266 4.34896 0.697266 3.10938C0.697266 2.48958 0.863281 1.90299 1.19531 1.34961C2.05859 2.43424 3.11003 3.29753 4.34961 3.93945C5.61133 4.58138 6.95052 4.93555 8.36719 5.00195C8.32292 4.73633 8.30078 4.4707 8.30078 4.20508C8.30078 3.25326 8.63281 2.43424 9.29688 1.74805C9.98307 1.06185 10.8021 0.71875 11.7539 0.71875C12.7721 0.71875 13.6243 1.08398 14.3105 1.81445C15.1074 1.65951 15.849 1.38281 16.5352 0.984375C16.2695 1.80339 15.7604 2.44531 15.0078 2.91016C15.6719 2.82161 16.3359 2.63346 17 2.3457C16.513 3.05404 15.9264 3.66276 15.2402 4.17188Z" fill="#4B4B4B"/>
</svg>
