<svg width="19" height="11" viewBox="0 0 19 11" fill="none" xmlns="http://www.w3.org/2000/svg">
<path d="M18.0957 1.04297C18.0293 1.375 17.7637 1.91732 17.2988 2.66992C16.8561 3.42253 16.4466 4.08659 16.0703 4.66211C15.694 5.21549 15.4948 5.50326 15.4727 5.52539C15.3398 5.72461 15.2734 5.86849 15.2734 5.95703C15.2734 6.04557 15.3398 6.20052 15.4727 6.42188C15.4727 6.42188 15.5391 6.49935 15.6719 6.6543C15.8268 6.80924 16.0039 6.98633 16.2031 7.18555C16.4023 7.38477 16.6237 7.61719 16.8672 7.88281C17.1107 8.14844 17.332 8.41406 17.5312 8.67969C17.7526 8.92318 17.9408 9.17773 18.0957 9.44336C18.2728 9.70898 18.3945 9.93034 18.4609 10.1074C18.6159 10.6608 18.3945 10.9375 17.7969 10.9375H15.8379C15.6829 10.9375 15.5501 10.9154 15.4395 10.8711C15.3288 10.8268 15.207 10.7493 15.0742 10.6387C14.9414 10.528 14.8197 10.4062 14.709 10.2734C14.5983 10.1406 14.4323 9.95247 14.2109 9.70898C13.9896 9.46549 13.7682 9.23307 13.5469 9.01172C12.6615 8.17057 12.0085 7.75 11.5879 7.75C11.3223 7.75 11.1673 7.82747 11.123 7.98242C11.0788 8.13737 11.0566 8.58008 11.0566 9.31055C11.0788 9.66471 11.0898 9.95247 11.0898 10.1738C11.0898 10.4395 11.0013 10.6387 10.8242 10.7715C10.6471 10.8822 10.2598 10.9375 9.66211 10.9375C8.62174 10.9375 7.57031 10.6276 6.50781 10.0078C5.44531 9.38802 4.51562 8.5026 3.71875 7.35156C2.96615 6.33333 2.33529 5.32617 1.82617 4.33008C1.33919 3.31185 1.01823 2.53711 0.863281 2.00586C0.708333 1.47461 0.630859 1.09831 0.630859 0.876953C0.630859 0.500651 0.852214 0.3125 1.29492 0.3125H3.25391C3.4974 0.3125 3.67448 0.367839 3.78516 0.478516C3.91797 0.589193 4.02865 0.788411 4.11719 1.07617C4.58203 2.42643 5.14648 3.63281 5.81055 4.69531C6.49674 5.75781 7.01693 6.28906 7.37109 6.28906C7.50391 6.28906 7.59245 6.24479 7.63672 6.15625C7.70312 6.04557 7.73633 5.84635 7.73633 5.55859V2.66992C7.71419 2.36003 7.65885 2.0944 7.57031 1.87305C7.48177 1.65169 7.39323 1.49674 7.30469 1.4082C7.21615 1.29753 7.1276 1.18685 7.03906 1.07617C6.97266 0.965495 6.93945 0.865885 6.93945 0.777344C6.93945 0.688802 6.96159 0.611328 7.00586 0.544922C7.05013 0.478516 7.10547 0.423177 7.17188 0.378906C7.26042 0.334635 7.34896 0.3125 7.4375 0.3125H10.5254C10.8796 0.3125 11.0566 0.55599 11.0566 1.04297V4.89453C11.0566 5.27083 11.1562 5.45898 11.3555 5.45898C11.5768 5.45898 11.8867 5.25977 12.2852 4.86133C12.7057 4.39648 13.1152 3.83203 13.5137 3.16797C13.9121 2.50391 14.2109 1.95052 14.4102 1.50781L14.709 0.876953C14.8639 0.500651 15.1406 0.3125 15.5391 0.3125H17.498C18.0293 0.3125 18.2285 0.55599 18.0957 1.04297Z" fill="#4B4B4B"/>
</svg>
