<svg width="83" height="39" viewBox="0 0 83 39" fill="none" xmlns="http://www.w3.org/2000/svg">
<g clip-path="url(#clip0)">
<path d="M1.59313 38.9028V36.5818H2.83347C3.21417 36.5801 3.54703 36.5235 3.82999 36.4142C4.11471 36.3074 4.35286 36.1576 4.54365 35.9669C4.73288 35.777 4.87797 35.5591 4.97327 35.3135C5.0671 35.0678 5.11602 34.8065 5.11602 34.5304C5.11602 34.2537 5.0671 33.9925 4.97327 33.7467C4.87797 33.4994 4.73288 33.2832 4.54365 33.0915C4.35286 32.9025 4.11471 32.7528 3.82999 32.6435C3.54703 32.5366 3.21417 32.4799 2.83347 32.4784H0.109375V38.9028H1.59313ZM2.65733 35.4452H1.59313V33.6149H2.65733C2.84665 33.6149 3.01098 33.6538 3.1507 33.7273C3.29326 33.8026 3.40184 33.9071 3.47956 34.0435C3.55708 34.1801 3.59819 34.342 3.59819 34.5304C3.59819 34.718 3.55708 34.8785 3.47956 35.015C3.40184 35.1514 3.29326 35.2576 3.1507 35.3328C3.01098 35.4065 2.84665 35.4437 2.65733 35.4452ZM12.3208 38.9028L10.9797 36.3506C11.1349 36.3074 11.2868 36.2398 11.4382 36.1452C11.5894 36.0514 11.7259 35.9297 11.8516 35.7809C11.9757 35.6314 12.075 35.4515 12.1501 35.2414C12.2246 35.0313 12.2634 34.787 12.2657 34.511C12.2634 34.2141 12.2099 33.9413 12.1052 33.694C11.9974 33.4467 11.846 33.2312 11.6484 33.0497C11.449 32.8684 11.2123 32.7289 10.9378 32.6296C10.6625 32.5295 10.357 32.4799 10.0171 32.4784H7.25905V38.9028H8.74281V36.5818H9.54014L10.6702 38.9028H12.3208ZM9.79548 35.4452H8.74281V33.6149H9.79548C9.98929 33.6149 10.1553 33.6538 10.2987 33.7273C10.4416 33.8026 10.5501 33.9071 10.63 34.0435C10.7074 34.1801 10.7478 34.342 10.7478 34.5304C10.7478 34.718 10.7074 34.8785 10.63 35.015C10.5501 35.1514 10.4416 35.2576 10.2987 35.3328C10.1553 35.4065 9.98929 35.4437 9.79548 35.4452ZM17.3878 39.0182C17.8742 39.0151 18.3078 38.933 18.6895 38.7678C19.0702 38.6043 19.3946 38.3732 19.6604 38.0763C19.9274 37.7771 20.1289 37.4275 20.2687 37.0227C20.4082 36.6205 20.4789 36.177 20.4789 35.6957C20.4789 35.2157 20.4082 34.7754 20.2687 34.3716C20.1289 33.9684 19.9274 33.6165 19.6604 33.3181C19.3946 33.0195 19.0702 32.7885 18.6895 32.6234C18.3078 32.4591 17.8742 32.3745 17.3878 32.3731C16.9063 32.3745 16.4742 32.4591 16.0943 32.6234C15.7142 32.7885 15.3907 33.0195 15.1271 33.3181C14.8617 33.6165 14.6585 33.9684 14.5196 34.3716C14.3809 34.7754 14.3118 35.2157 14.3094 35.6957C14.3118 36.177 14.3809 36.6205 14.5196 37.0227C14.6585 37.4275 14.8617 37.7771 15.1271 38.0763C15.3907 38.3732 15.7142 38.6043 16.0943 38.7678C16.4742 38.933 16.9063 39.0151 17.3878 39.0182ZM17.3878 37.8725C17.1359 37.8709 16.9141 37.8143 16.7202 37.7035C16.5285 37.5941 16.3656 37.4406 16.2345 37.2429C16.1035 37.0453 16.0065 36.8144 15.9375 36.5507C15.8708 36.2879 15.8375 36.0034 15.8375 35.6957C15.8375 35.3825 15.8708 35.0949 15.9375 34.8305C16.0065 34.5668 16.1035 34.3374 16.2345 34.1413C16.3656 33.9443 16.5285 33.7931 16.7202 33.6839C16.9141 33.5746 17.1359 33.5204 17.3878 33.5187C17.6432 33.5204 17.8688 33.5746 18.0634 33.6839C18.2598 33.7931 18.4241 33.9443 18.5568 34.1413C18.6895 34.3374 18.791 34.5668 18.86 34.8305C18.9276 35.0949 18.9617 35.3825 18.9617 35.6957C18.9617 36.0034 18.9276 36.2879 18.86 36.5507C18.791 36.8144 18.6895 37.0453 18.5568 37.2429C18.4241 37.4406 18.2598 37.5941 18.0634 37.7035C17.8688 37.8143 17.6432 37.8709 17.3878 37.8725ZM24.2281 38.9028V36.2058H26.8978V35.0692H24.2281V33.6149H26.9754V32.4784H22.7444V38.9028H24.2281ZM33.4611 38.9028V37.7663H30.714V36.2058H33.3836V35.0692H30.714V33.6149H33.4611V32.4784H29.2294V38.9028H33.4611ZM37.852 39.0182C38.2569 39.0167 38.6152 38.9686 38.9254 38.871C39.2365 38.774 39.4987 38.6376 39.7119 38.4633C39.9245 38.288 40.0827 38.0809 40.1912 37.8431C40.3007 37.6074 40.3556 37.3454 40.3556 37.0632C40.3542 36.7933 40.306 36.5576 40.2138 36.3569C40.1229 36.1562 39.9981 35.9824 39.8431 35.8368C39.6863 35.691 39.5102 35.5638 39.3139 35.4576C39.1209 35.3507 38.9193 35.2576 38.7105 35.1771C38.5019 35.0949 38.3019 35.0196 38.1071 34.9506C37.9116 34.8801 37.7364 34.8081 37.5796 34.7335C37.4246 34.6614 37.299 34.5785 37.2089 34.4871C37.1159 34.3957 37.0678 34.2877 37.0663 34.1638C37.0678 33.9637 37.1454 33.8049 37.299 33.6886C37.4517 33.5716 37.6627 33.511 37.9295 33.5094C38.2204 33.5094 38.5003 33.5522 38.7726 33.6405C39.0434 33.7305 39.2915 33.8653 39.5141 34.0482L40.223 33.0855C39.9383 32.8529 39.6087 32.6761 39.2295 32.556C38.8517 32.4334 38.4359 32.3731 37.9861 32.3731C37.6038 32.3745 37.2603 32.4257 36.9591 32.5235C36.6606 32.6234 36.4039 32.7598 36.1952 32.9327C35.9842 33.1063 35.8245 33.3057 35.7151 33.5297C35.6043 33.7559 35.5484 33.9955 35.5484 34.2505C35.5507 34.5219 35.5987 34.756 35.6912 34.9552C35.7833 35.153 35.9067 35.3242 36.0642 35.4662C36.2209 35.6087 36.3985 35.7305 36.5931 35.8336C36.7894 35.936 36.9903 36.0258 37.1988 36.1033C37.4076 36.1817 37.6092 36.2554 37.8054 36.325C38.0001 36.3941 38.1778 36.4678 38.3343 36.5429C38.4919 36.6205 38.6152 36.7081 38.7075 36.8096C38.7998 36.9088 38.8479 37.0297 38.8502 37.1694C38.8502 37.3026 38.8107 37.4228 38.733 37.529C38.6555 37.636 38.543 37.7214 38.3934 37.7857C38.2436 37.8483 38.059 37.8803 37.8418 37.8818C37.5984 37.8803 37.3657 37.8515 37.1454 37.7918C36.9259 37.7344 36.7242 37.6539 36.5404 37.5508C36.3574 37.4483 36.1967 37.3313 36.0587 37.198L35.3274 38.1903C35.619 38.4485 35.9741 38.6493 36.3899 38.7951C36.8073 38.9415 37.295 39.0151 37.852 39.0182ZM44.6146 39.0182C45.0186 39.0167 45.377 38.9686 45.6872 38.871C45.9989 38.774 46.2611 38.6376 46.4737 38.4633C46.6862 38.288 46.8444 38.0809 46.9538 37.8431C47.0623 37.6074 47.1174 37.3454 47.1174 37.0632C47.1159 36.7933 47.0677 36.5576 46.9755 36.3569C46.8847 36.1562 46.7599 35.9824 46.6047 35.8368C46.4482 35.691 46.272 35.5638 46.0767 35.4576C45.8826 35.3507 45.681 35.2576 45.4723 35.1771C45.2637 35.0949 45.0635 35.0196 44.8688 34.9506C44.6742 34.8801 44.4982 34.8081 44.3415 34.7335C44.1864 34.6614 44.0608 34.5785 43.9707 34.4871C43.8777 34.3957 43.8295 34.2877 43.8281 34.1638C43.8295 33.9637 43.9072 33.8049 44.0608 33.6886C44.2136 33.5716 44.4246 33.511 44.6921 33.5094C44.9821 33.5094 45.2621 33.5522 45.5344 33.6405C45.8051 33.7305 46.0532 33.8653 46.2758 34.0482L46.9848 33.0855C46.7002 32.8529 46.3705 32.6761 45.9912 32.556C45.6134 32.4334 45.1977 32.3731 44.748 32.3731C44.3656 32.3745 44.0219 32.4257 43.721 32.5235C43.4225 32.6234 43.1657 32.7598 42.957 32.9327C42.7469 33.1063 42.5863 33.3057 42.4769 33.5297C42.366 33.7559 42.3108 33.9955 42.3108 34.2505C42.3124 34.5219 42.3606 34.756 42.4529 34.9552C42.5451 35.153 42.6692 35.3242 42.826 35.4662C42.9826 35.6087 43.1603 35.7305 43.3557 35.8336C43.5512 35.936 43.752 36.0258 43.9606 36.1033C44.1693 36.1817 44.371 36.2554 44.5671 36.325C44.7618 36.3941 44.9395 36.4678 45.0961 36.5429C45.2536 36.6205 45.377 36.7081 45.4692 36.8096C45.5615 36.9088 45.6096 37.0297 45.612 37.1694C45.612 37.3026 45.5724 37.4228 45.4948 37.529C45.4172 37.636 45.3049 37.7214 45.1551 37.7857C45.0054 37.8483 44.8208 37.8803 44.6036 37.8818C44.3601 37.8803 44.1274 37.8515 43.9072 37.7918C43.6877 37.7344 43.4868 37.6539 43.3021 37.5508C43.1191 37.4483 42.9585 37.3313 42.8204 37.198L42.0891 38.1903C42.3807 38.4485 42.7359 38.6493 43.1525 38.7951C43.5689 38.9415 44.0568 39.0151 44.6146 39.0182ZM50.8118 38.9028V32.4784H49.3271V38.9028H50.8118ZM56.1448 39.0182C56.6304 39.0151 57.0648 38.933 57.4464 38.7678C57.8272 38.6043 58.1514 38.3732 58.4175 38.0763C58.6835 37.7771 58.8859 37.4275 59.0256 37.0227C59.1651 36.6205 59.2358 36.177 59.2358 35.6957C59.2358 35.2157 59.1651 34.7754 59.0256 34.3716C58.8859 33.9684 58.6835 33.6165 58.4175 33.3181C58.1514 33.0195 57.8272 32.7885 57.4464 32.6234C57.0648 32.4591 56.6304 32.3745 56.1448 32.3731C55.6632 32.3745 55.2313 32.4591 54.8512 32.6234C54.4703 32.7885 54.1477 33.0195 53.8839 33.3181C53.618 33.6165 53.4148 33.9684 53.2767 34.3716C53.1379 34.7754 53.068 35.2157 53.0665 35.6957C53.068 36.177 53.1379 36.6205 53.2767 37.0227C53.4148 37.4275 53.618 37.7771 53.8839 38.0763C54.1477 38.3732 54.4703 38.6043 54.8512 38.7678C55.2313 38.933 55.6632 39.0151 56.1448 39.0182ZM56.1448 37.8725C55.8928 37.8709 55.6702 37.8143 55.477 37.7035C55.2856 37.5941 55.1219 37.4406 54.9915 37.2429C54.8604 37.0453 54.7628 36.8144 54.6946 36.5507C54.6278 36.2879 54.5945 36.0034 54.5945 35.6957C54.5945 35.3825 54.6278 35.0949 54.6946 34.8305C54.7628 34.5668 54.8604 34.3374 54.9915 34.1413C55.1219 33.9443 55.2856 33.7931 55.477 33.6839C55.6702 33.5746 55.8928 33.5204 56.1448 33.5187C56.4 33.5204 56.625 33.5746 56.8204 33.6839C57.0168 33.7931 57.1804 33.9443 57.3138 34.1413C57.4464 34.3374 57.5479 34.5668 57.6163 34.8305C57.6846 35.0949 57.7186 35.3825 57.7186 35.6957C57.7186 36.0034 57.6846 36.2879 57.6163 36.5507C57.5479 36.8144 57.4464 37.0453 57.3138 37.2429C57.1804 37.4406 57.0168 37.5941 56.8204 37.7035C56.625 37.8143 56.4 37.8709 56.1448 37.8725ZM66.9167 38.9028V32.4784H65.4214V36.1383L63.0075 32.4784H61.5005V38.9028H62.9851V35.1081L65.4988 38.9028H66.9167ZM74.9646 38.9028L72.7712 32.4784H70.9763L68.7838 38.9028H70.39L70.7329 37.7663H73.0039L73.3475 38.9028H74.9646ZM72.7161 36.6297H71.0322L71.8738 33.8367L72.7161 36.6297ZM80.8074 38.9028V37.7663H78.3261V32.4784H76.8417V38.9028H80.8074Z" fill="#2B2A29"/>
<path d="M5.81414 -0.0196543H-0.0175781V22.7506H5.81414V-0.0196543ZM14.7869 22.7506V8.19704H8.9615V22.7506H14.7869ZM34.8215 22.7506L29.0928 13.7718L34.465 6.262H27.4422L23.8495 12.1335V-0.0196543H18.0242V22.7506H23.8495V19.0293L24.9823 17.4252L27.6689 22.7506H34.8215ZM50.9072 22.7506V12.782C50.8723 4.8767 41.48 3.40853 36.1373 7.28905L37.8012 11.3168C39.6726 9.82837 45.082 9.13987 45.082 12.8822C42.8737 12.4553 39.7315 12.0004 37.4601 13.1466C36.9937 13.3821 36.5749 13.7096 36.2033 14.1133C35.8308 14.5178 35.5397 15.0185 35.3181 15.6101C35.102 16.2074 34.9891 16.9127 34.984 17.7324C34.9891 18.4832 35.102 19.1491 35.3181 19.7408C35.5397 20.3269 35.8308 20.8332 36.2033 21.2658C36.5749 21.6983 36.9958 22.0509 37.4601 22.3293C39.3071 23.4404 43.2918 23.2483 45.082 21.8813V22.7506H50.9072ZM45.082 15.8731C44.9682 17.693 44.2907 18.6437 43.2806 19.0285C41.1531 19.7226 40.2015 17.4652 41.5467 16.2201C42.3055 15.5176 43.9561 15.5918 45.082 15.8731ZM74.2112 23.16C75.6084 23.1488 76.8485 22.9154 77.9337 22.4547C79.023 21.9942 79.9454 21.3568 80.7008 20.5541C81.4555 19.7466 82.0272 18.8246 82.4215 17.7891C82.8149 16.748 83.0149 15.6502 83.0149 14.4891C83.0149 13.3282 82.8149 12.2302 82.4215 11.1948C82.0272 10.1592 81.4555 9.24303 80.7008 8.44102C79.9454 7.63891 79.023 7.01277 77.9337 6.55224C76.8485 6.09659 75.6084 5.86373 74.2112 5.85183C72.8251 5.86373 71.5899 6.09659 70.5047 6.55224C69.4211 7.01277 68.5035 7.63891 67.7488 8.44102C66.9989 9.24303 66.4273 10.1592 66.0338 11.1948C65.6395 12.2302 65.4453 13.3282 65.4404 14.4891C65.4453 15.6502 65.6395 16.748 66.0338 17.7891C66.4273 18.8246 66.9989 19.7466 67.7488 20.5541C68.5035 21.3568 69.4211 21.9942 70.5047 22.4547C71.5899 22.9154 72.8251 23.1488 74.2112 23.16ZM74.2273 11.2228C76.0411 11.2228 77.5121 12.6929 77.5121 14.5059C77.5121 16.3189 76.0411 17.7891 74.2273 17.7891C72.4133 17.7891 70.9424 16.3189 70.9424 14.5059C70.9424 12.6929 72.4133 11.2228 74.2273 11.2228ZM64.6624 21.9486L63.6271 17.6628C62.8641 18.4047 61.1672 18.1796 61.1672 16.6596V11.5874H64.3391V6.262H61.1672V1.75543H55.3411V6.262H52.7521V11.5874H55.3411V16.1289C55.3411 19.1836 55.3123 21.9479 59.0165 22.8887C60.9098 23.3697 63.1376 22.9869 64.6624 21.9486ZM11.8738 -0.0196543C13.6878 -0.0196543 15.1587 1.45055 15.1587 3.26341C15.1587 5.07636 13.6878 6.54657 11.8738 6.54657C10.06 6.54657 8.589 5.07636 8.589 3.26341C8.589 1.45055 10.06 -0.0196543 11.8738 -0.0196543Z" fill="#2B2A29"/>
</g>
<defs>
<clipPath id="clip0">
<rect width="83" height="39" fill="white"/>
</clipPath>
</defs>
</svg>
